<?xml version="1.0" encoding="UTF-8" standalone="no"?>
<!-- Created with Inkscape (http://www.inkscape.org/) -->
<svg
   xmlns:dc="http://purl.org/dc/elements/1.1/"
   xmlns:cc="http://creativecommons.org/ns#"
   xmlns:rdf="http://www.w3.org/1999/02/22-rdf-syntax-ns#"
   xmlns:svg="http://www.w3.org/2000/svg"
   xmlns="http://www.w3.org/2000/svg"
   xmlns:xlink="http://www.w3.org/1999/xlink"
   xmlns:sodipodi="http://sodipodi.sourceforge.net/DTD/sodipodi-0.dtd"
   xmlns:inkscape="http://www.inkscape.org/namespaces/inkscape"
   width="2048"
   height="2048"
   id="svg2"
   sodipodi:version="0.32"
   inkscape:version="0.46"
   version="1.0"
   sodipodi:docname="Stream Visualizer Icon.svg"
   inkscape:output_extension="org.inkscape.output.svg.inkscape"
   inkscape:export-filename="C:\Users\Julian Brunner\Documents\Visual Studio 2008\Projects\Visualizer\Images\Stream Visualizer Icon.png"
   inkscape:export-xdpi="12"
   inkscape:export-ydpi="12">
  <defs
     id="defs4">
    <linearGradient
       inkscape:collect="always"
       id="linearGradient3529">
      <stop
         style="stop-color:#ffffff;stop-opacity:1;"
         offset="0"
         id="stop3531" />
      <stop
         style="stop-color:#ffffff;stop-opacity:0;"
         offset="1"
         id="stop3533" />
    </linearGradient>
    <linearGradient
       id="linearGradient3517">
      <stop
         style="stop-color:#000000;stop-opacity:1;"
         offset="0"
         id="stop3519" />
      <stop
         style="stop-color:#000000;stop-opacity:0;"
         offset="1"
         id="stop3521" />
    </linearGradient>
    <linearGradient
       id="linearGradient3332">
      <stop
         style="stop-color:#00ff00;stop-opacity:1;"
         offset="0"
         id="stop3334" />
      <stop
         style="stop-color:#0000ff;stop-opacity:0;"
         offset="1"
         id="stop3336" />
    </linearGradient>
    <linearGradient
       id="linearGradient3322">
      <stop
         style="stop-color:#ffff00;stop-opacity:1;"
         offset="0"
         id="stop3324" />
      <stop
         style="stop-color:#00ff00;stop-opacity:0;"
         offset="1"
         id="stop3326" />
    </linearGradient>
    <linearGradient
       inkscape:collect="always"
       id="linearGradient3312">
      <stop
         style="stop-color:#ff0000;stop-opacity:1;"
         offset="0"
         id="stop3314" />
      <stop
         style="stop-color:#ff0000;stop-opacity:0;"
         offset="1"
         id="stop3316" />
    </linearGradient>
    <linearGradient
       id="linearGradient3203">
      <stop
         style="stop-color:#000000;stop-opacity:1;"
         offset="0"
         id="stop3205" />
      <stop
         style="stop-color:#000000;stop-opacity:0"
         offset="1"
         id="stop3207" />
    </linearGradient>
    <inkscape:perspective
       sodipodi:type="inkscape:persp3d"
       inkscape:vp_x="0 : 526.18109 : 1"
       inkscape:vp_y="0 : 1000 : 0"
       inkscape:vp_z="744.09448 : 526.18109 : 1"
       inkscape:persp3d-origin="372.04724 : 350.78739 : 1"
       id="perspective10" />
    <linearGradient
       inkscape:collect="always"
       xlink:href="#linearGradient3203"
       id="linearGradient3429"
       gradientUnits="userSpaceOnUse"
       x1="512"
       y1="512"
       x2="1536"
       y2="1536" />
    <linearGradient
       inkscape:collect="always"
       xlink:href="#linearGradient3203"
       id="linearGradient3437"
       gradientUnits="userSpaceOnUse"
       x1="768"
       y1="768"
       x2="1280"
       y2="1280"
       gradientTransform="matrix(0.8,0,0,0.8,204.8,204.8)" />
    <linearGradient
       inkscape:collect="always"
       xlink:href="#linearGradient3312"
       id="linearGradient3485"
       gradientUnits="userSpaceOnUse"
       x1="1280"
       y1="1280"
       x2="768"
       y2="768"
       gradientTransform="matrix(0.8,0,0,0.8,204.8,204.8)" />
    <linearGradient
       inkscape:collect="always"
       xlink:href="#linearGradient3322"
       id="linearGradient3487"
       gradientUnits="userSpaceOnUse"
       x1="1280"
       y1="1280"
       x2="768"
       y2="768"
       gradientTransform="matrix(0.8,0,0,0.8,204.8,204.8)" />
    <linearGradient
       inkscape:collect="always"
       xlink:href="#linearGradient3332"
       id="linearGradient3489"
       gradientUnits="userSpaceOnUse"
       x1="1280"
       y1="1280"
       x2="768"
       y2="768"
       gradientTransform="matrix(0.8,0,0,0.8,204.8,204.8)" />
    <linearGradient
       inkscape:collect="always"
       xlink:href="#linearGradient3517"
       id="linearGradient3523"
       x1="1024"
       y1="-640"
       x2="1024"
       y2="1472"
       gradientUnits="userSpaceOnUse" />
    <linearGradient
       inkscape:collect="always"
       xlink:href="#linearGradient3529"
       id="linearGradient3535"
       x1="128"
       y1="1024"
       x2="1920"
       y2="1024"
       gradientUnits="userSpaceOnUse" />
    <linearGradient
       inkscape:collect="always"
       xlink:href="#linearGradient3529"
       id="linearGradient3540"
       gradientUnits="userSpaceOnUse"
       x1="1024"
       y1="192"
       x2="1024"
       y2="1664" />
  </defs>
  <sodipodi:namedview
     id="base"
     pagecolor="#ffffff"
     bordercolor="#666666"
     borderopacity="1.0"
     gridtolerance="10000"
     guidetolerance="10"
     objecttolerance="10"
     inkscape:pageopacity="0.0"
     inkscape:pageshadow="2"
     inkscape:zoom="0.24"
     inkscape:cx="89.5239"
     inkscape:cy="1045.1"
     inkscape:document-units="px"
     inkscape:current-layer="layer4"
     showgrid="false"
     showguides="true"
     inkscape:window-width="1680"
     inkscape:window-height="1028"
     inkscape:window-x="-8"
     inkscape:window-y="-8">
    <inkscape:grid
       type="xygrid"
       id="grid3157"
       visible="true"
       enabled="true"
       dotted="true"
       spacingx="64px"
       spacingy="64px" />
  </sodipodi:namedview>
  <metadata
     id="metadata7">
    <rdf:RDF>
      <cc:Work
         rdf:about="">
        <dc:format>image/svg+xml</dc:format>
        <dc:type
           rdf:resource="http://purl.org/dc/dcmitype/StillImage" />
      </cc:Work>
    </rdf:RDF>
  </metadata>
  <g
     inkscape:groupmode="layer"
     id="layer4"
     inkscape:label="Button (Base)"
     style="display:inline">
    <rect
       style="fill:#1921b7;fill-opacity:1;stroke:none;stroke-width:16;stroke-linecap:butt;stroke-linejoin:miter;stroke-miterlimit:20;stroke-dasharray:none;stroke-opacity:1;display:inline"
       id="rect3492"
       width="1920"
       height="1920"
       x="64"
       y="64"
       rx="256"
       inkscape:export-xdpi="2.5799999"
       inkscape:export-ydpi="2.5799999" />
  </g>
  <g
     inkscape:groupmode="layer"
     id="layer5"
     inkscape:label="Button (Shading)"
     style="display:inline;opacity:0.5"
     sodipodi:insensitive="true">
    <rect
       style="fill:url(#linearGradient3523);fill-opacity:1;stroke:none;stroke-width:16;stroke-linecap:butt;stroke-linejoin:miter;stroke-miterlimit:20;stroke-dasharray:none;stroke-opacity:1"
       id="rect3515"
       width="1920"
       height="1920"
       x="64"
       y="63.999939"
       rx="256" />
  </g>
  <g
     inkscape:label="Text"
     inkscape:groupmode="layer"
     id="layer1"
     style="display:inline"
     sodipodi:insensitive="true">
    <path
       style="fill:url(#linearGradient3437);fill-opacity:1;fill-rule:evenodd;stroke:none;stroke-width:1px;stroke-linecap:butt;stroke-linejoin:miter;stroke-opacity:1"
       d="M 256,256 L 256,358.4 L 563.2,358.4 L 563.2,256 L 256,256 z M 665.6,256 L 665.6,358.4 L 972.80002,358.4 L 972.80002,256 L 665.6,256 z M 1075.2,256 L 1075.2,358.4 L 1382.4,358.4 L 1382.4,256 L 1075.2,256 z M 1484.8,256 L 1484.8,358.4 L 1792,358.4 L 1792,256 L 1484.8,256 z M 256,460.8 L 256,563.2 L 563.2,563.2 L 563.2,460.8 L 256,460.8 z M 665.6,460.8 L 665.6,563.2 L 972.80002,563.2 L 972.80002,460.8 L 665.6,460.8 z M 1075.2,460.8 L 1075.2,563.2 L 1382.4,563.2 L 1382.4,460.8 L 1075.2,460.8 z M 1484.8,460.8 L 1484.8,563.2 L 1792,563.2 L 1792,460.8 L 1484.8,460.8 z M 256,665.6 L 256,768 L 563.2,768 L 563.2,665.6 L 256,665.6 z M 665.6,665.6 L 665.6,768 L 972.80002,768 L 972.80002,665.6 L 665.6,665.6 z M 1075.2,665.6 L 1075.2,768 L 1382.4,768 L 1382.4,665.6 L 1075.2,665.6 z M 1484.8,665.6 L 1484.8,768 L 1792,768 L 1792,665.6 L 1484.8,665.6 z M 256,870.4 L 256,972.80003 L 563.2,972.80003 L 563.2,870.4 L 256,870.4 z M 665.6,870.4 L 665.6,972.80003 L 972.80002,972.80003 L 972.80002,870.4 L 665.6,870.4 z M 1075.2,870.4 L 1075.2,972.80003 L 1382.4,972.80003 L 1382.4,870.4 L 1075.2,870.4 z M 1484.8,870.4 L 1484.8,972.80003 L 1792,972.80003 L 1792,870.4 L 1484.8,870.4 z M 256,1075.2 L 256,1177.6 L 563.2,1177.6 L 563.2,1075.2 L 256,1075.2 z M 665.6,1075.2 L 665.6,1177.6 L 972.80002,1177.6 L 972.80002,1075.2 L 665.6,1075.2 z M 1075.2,1075.2 L 1075.2,1177.6 L 1382.4,1177.6 L 1382.4,1075.2 L 1075.2,1075.2 z M 1484.8,1075.2 L 1484.8,1177.6 L 1792,1177.6 L 1792,1075.2 L 1484.8,1075.2 z M 256,1280 L 256,1382.4 L 563.2,1382.4 L 563.2,1280 L 256,1280 z M 665.6,1280 L 665.6,1382.4 L 972.80002,1382.4 L 972.80002,1280 L 665.6,1280 z M 1075.2,1280 L 1075.2,1382.4 L 1382.4,1382.4 L 1382.4,1280 L 1075.2,1280 z M 1484.8,1280 L 1484.8,1382.4 L 1792,1382.4 L 1792,1280 L 1484.8,1280 z M 256,1484.8 L 256,1587.2 L 563.2,1587.2 L 563.2,1484.8 L 256,1484.8 z M 665.6,1484.8 L 665.6,1587.2 L 972.80002,1587.2 L 972.80002,1484.8 L 665.6,1484.8 z M 1075.2,1484.8 L 1075.2,1587.2 L 1382.4,1587.2 L 1382.4,1484.8 L 1075.2,1484.8 z M 1484.8,1484.8 L 1484.8,1587.2 L 1792,1587.2 L 1792,1484.8 L 1484.8,1484.8 z M 256,1689.6 L 256,1792 L 563.2,1792 L 563.2,1689.6 L 256,1689.6 z M 665.6,1689.6 L 665.6,1792 L 972.80002,1792 L 972.80002,1689.6 L 665.6,1689.6 z M 1075.2,1689.6 L 1075.2,1792 L 1382.4,1792 L 1382.4,1689.6 L 1075.2,1689.6 z M 1484.8,1689.6 L 1484.8,1792 L 1792,1792 L 1792,1689.6 L 1484.8,1689.6 z"
       id="rect3163" />
  </g>
  <g
     inkscape:groupmode="layer"
     id="layer2"
     inkscape:label="Graphs"
     style="display:inline"
     sodipodi:insensitive="true">
    <path
       style="fill:url(#linearGradient3485);fill-opacity:1;fill-rule:evenodd;stroke:none;stroke-width:128;stroke-linecap:butt;stroke-linejoin:miter;stroke-miterlimit:20;stroke-dasharray:none;stroke-opacity:1"
       d="M 1205.9,300.52499 L 1178.425,451.65 L 996.29998,1453.3499 L 657,944.4 L 612.12501,877.075 L 570.5,946.45 L 256,1470.625 L 256,1669.6499 L 616.675,1068.525 L 981.4,1615.6 L 1051.7,1721.05 L 1074.375,1596.3501 L 1251.7,621.1 L 1541.4,1200.5 L 1546.425,1210.5501 L 1555.225,1217.5751 L 1792,1407 L 1792,1275.875 L 1628,1144.6751 L 1274.6,437.9 L 1205.9,300.52499 z"
       id="path3254" />
    <path
       style="fill:url(#linearGradient3487);fill-opacity:1;fill-rule:evenodd;stroke:none;stroke-width:128;stroke-linecap:butt;stroke-linejoin:miter;stroke-miterlimit:20;stroke-dasharray:none;stroke-opacity:1"
       d="M 783.4,554.1 L 768.52499,658.35 L 679.77501,1279.5501 L 256,894.3 L 256,1032.675 L 682.35,1420.275 L 753.82499,1485.25 L 767.47499,1389.6501 L 854.97501,777.1 L 1792,1756.7 L 1792,1608.525 L 856.2,630.2 L 783.4,554.1 z"
       id="path3320" />
    <path
       style="fill:url(#linearGradient3489);fill-opacity:1;stroke:none;stroke-width:128;stroke-linecap:butt;stroke-linejoin:miter;stroke-miterlimit:20;stroke-dasharray:none;stroke-opacity:1"
       d="M 256,403.55 L 256,558.1 L 1241.65,1672.325 L 1311.525,1751.3 L 1330.3751,1647.55 L 1399.6,1266.875 L 1488.0501,1502.775 L 1534.45,1626.5 L 1583.5499,1503.825 L 1792,982.70003 L 1792,706.9 L 1537.525,1343.05 L 1430.35,1057.225 L 1365.2,883.55 L 1332.025,1066.0499 L 1248.5,1525.5 L 256,403.55 z"
       id="path3330" />
  </g>
  <g
     inkscape:groupmode="layer"
     id="layer3"
     inkscape:label="Button (Highlight)"
     style="opacity:1"
     sodipodi:insensitive="true">
    <path
       style="fill:url(#linearGradient3540);fill-opacity:1;stroke:none;stroke-width:16;stroke-linecap:butt;stroke-linejoin:miter;stroke-miterlimit:20;stroke-opacity:1"
       d="M 366.93332,128 L 1681.0667,128 C 1813.4357,128 1920,234.56426 1920,366.93332 L 1920,1024 C 1920,1156.369 1472,1344 1024,1344 C 576,1344 128,1156.369 128,1024 L 128,366.93332 C 128,234.56426 234.56426,128 366.93332,128 z"
       id="rect3525"
       sodipodi:nodetypes="cccczccc"
       inkscape:export-xdpi="2.5799999"
       inkscape:export-ydpi="2.5799999" />
  </g>
</svg>
