<?xml version="1.0" encoding="UTF-8" standalone="no"?>
<!-- Created with Inkscape (http://www.inkscape.org/) -->
<svg
   xmlns:dc="http://purl.org/dc/elements/1.1/"
   xmlns:cc="http://creativecommons.org/ns#"
   xmlns:rdf="http://www.w3.org/1999/02/22-rdf-syntax-ns#"
   xmlns:svg="http://www.w3.org/2000/svg"
   xmlns="http://www.w3.org/2000/svg"
   xmlns:xlink="http://www.w3.org/1999/xlink"
   xmlns:sodipodi="http://sodipodi.sourceforge.net/DTD/sodipodi-0.dtd"
   xmlns:inkscape="http://www.inkscape.org/namespaces/inkscape"
   width="2048"
   height="2048"
   id="svg2"
   sodipodi:version="0.32"
   inkscape:version="0.46"
   version="1.0"
   sodipodi:docname="Stream Visualizer Icon.svg"
   inkscape:output_extension="org.inkscape.output.svg.inkscape">
  <defs
     id="defs4">
    <linearGradient
       inkscape:collect="always"
       id="linearGradient3332">
      <stop
         style="stop-color:#0000ff;stop-opacity:1;"
         offset="0"
         id="stop3334" />
      <stop
         style="stop-color:#0000ff;stop-opacity:0;"
         offset="1"
         id="stop3336" />
    </linearGradient>
    <linearGradient
       inkscape:collect="always"
       id="linearGradient3322">
      <stop
         style="stop-color:#00ff00;stop-opacity:1;"
         offset="0"
         id="stop3324" />
      <stop
         style="stop-color:#00ff00;stop-opacity:0;"
         offset="1"
         id="stop3326" />
    </linearGradient>
    <linearGradient
       inkscape:collect="always"
       id="linearGradient3312">
      <stop
         style="stop-color:#ff0000;stop-opacity:1;"
         offset="0"
         id="stop3314" />
      <stop
         style="stop-color:#ff0000;stop-opacity:0;"
         offset="1"
         id="stop3316" />
    </linearGradient>
    <linearGradient
       id="linearGradient3203">
      <stop
         style="stop-color:#000000;stop-opacity:1;"
         offset="0"
         id="stop3205" />
      <stop
         style="stop-color:#000000;stop-opacity:0"
         offset="1"
         id="stop3207" />
    </linearGradient>
    <inkscape:perspective
       sodipodi:type="inkscape:persp3d"
       inkscape:vp_x="0 : 526.18109 : 1"
       inkscape:vp_y="0 : 1000 : 0"
       inkscape:vp_z="744.09448 : 526.18109 : 1"
       inkscape:persp3d-origin="372.04724 : 350.78739 : 1"
       id="perspective10" />
    <linearGradient
       inkscape:collect="always"
       xlink:href="#linearGradient3332"
       id="linearGradient3345"
       gradientUnits="userSpaceOnUse"
       x1="1280"
       y1="1280"
       x2="768"
       y2="768" />
    <linearGradient
       inkscape:collect="always"
       xlink:href="#linearGradient3312"
       id="linearGradient3347"
       gradientUnits="userSpaceOnUse"
       x1="1280"
       y1="1280"
       x2="768"
       y2="768" />
    <linearGradient
       inkscape:collect="always"
       xlink:href="#linearGradient3322"
       id="linearGradient3349"
       gradientUnits="userSpaceOnUse"
       x1="1280"
       y1="1280"
       x2="768"
       y2="768" />
    <linearGradient
       inkscape:collect="always"
       xlink:href="#linearGradient3203"
       id="linearGradient3429"
       gradientUnits="userSpaceOnUse"
       x1="512"
       y1="512"
       x2="1536"
       y2="1536" />
    <linearGradient
       inkscape:collect="always"
       xlink:href="#linearGradient3203"
       id="linearGradient3437"
       gradientUnits="userSpaceOnUse"
       x1="768"
       y1="768"
       x2="1280"
       y2="1280" />
  </defs>
  <sodipodi:namedview
     id="base"
     pagecolor="#ffffff"
     bordercolor="#666666"
     borderopacity="1.0"
     gridtolerance="10000"
     guidetolerance="10"
     objecttolerance="10"
     inkscape:pageopacity="0.0"
     inkscape:pageshadow="2"
     inkscape:zoom="0.24"
     inkscape:cx="683.61322"
     inkscape:cy="1007.1215"
     inkscape:document-units="px"
     inkscape:current-layer="layer2"
     showgrid="false"
     showguides="true"
     inkscape:window-width="1280"
     inkscape:window-height="755"
     inkscape:window-x="0"
     inkscape:window-y="0">
    <inkscape:grid
       type="xygrid"
       id="grid3157"
       visible="true"
       enabled="true"
       dotted="true"
       spacingx="64px"
       spacingy="64px" />
  </sodipodi:namedview>
  <metadata
     id="metadata7">
    <rdf:RDF>
      <cc:Work
         rdf:about="">
        <dc:format>image/svg+xml</dc:format>
        <dc:type
           rdf:resource="http://purl.org/dc/dcmitype/StillImage" />
      </cc:Work>
    </rdf:RDF>
  </metadata>
  <g
     inkscape:label="Text"
     inkscape:groupmode="layer"
     id="layer1"
     style="display:inline"
     sodipodi:insensitive="true">
    <path
       style="fill:url(#linearGradient3437);fill-opacity:1;fill-rule:evenodd;stroke:none;stroke-width:1px;stroke-linecap:butt;stroke-linejoin:miter;stroke-opacity:1"
       d="M 64,64 L 64,192 L 448,192 L 448,64 L 64,64 z M 576,64 L 576,192 L 960,192 L 960,64 L 576,64 z M 1088,64 L 1088,192 L 1472,192 L 1472,64 L 1088,64 z M 1600,64 L 1600,192 L 1984,192 L 1984,64 L 1600,64 z M 64,320 L 64,448 L 448,448 L 448,320 L 64,320 z M 576,320 L 576,448 L 960,448 L 960,320 L 576,320 z M 1088,320 L 1088,448 L 1472,448 L 1472,320 L 1088,320 z M 1600,320 L 1600,448 L 1984,448 L 1984,320 L 1600,320 z M 64,576 L 64,704 L 448,704 L 448,576 L 64,576 z M 576,576 L 576,704 L 960,704 L 960,576 L 576,576 z M 1088,576 L 1088,704 L 1472,704 L 1472,576 L 1088,576 z M 1600,576 L 1600,704 L 1984,704 L 1984,576 L 1600,576 z M 64,832 L 64,960 L 448,960 L 448,832 L 64,832 z M 576,832 L 576,960 L 960,960 L 960,832 L 576,832 z M 1088,832 L 1088,960 L 1472,960 L 1472,832 L 1088,832 z M 1600,832 L 1600,960 L 1984,960 L 1984,832 L 1600,832 z M 64,1088 L 64,1216 L 448,1216 L 448,1088 L 64,1088 z M 576,1088 L 576,1216 L 960,1216 L 960,1088 L 576,1088 z M 1088,1088 L 1088,1216 L 1472,1216 L 1472,1088 L 1088,1088 z M 1600,1088 L 1600,1216 L 1984,1216 L 1984,1088 L 1600,1088 z M 64,1344 L 64,1472 L 448,1472 L 448,1344 L 64,1344 z M 576,1344 L 576,1472 L 960,1472 L 960,1344 L 576,1344 z M 1088,1344 L 1088,1472 L 1472,1472 L 1472,1344 L 1088,1344 z M 1600,1344 L 1600,1472 L 1984,1472 L 1984,1344 L 1600,1344 z M 64,1600 L 64,1728 L 448,1728 L 448,1600 L 64,1600 z M 576,1600 L 576,1728 L 960,1728 L 960,1600 L 576,1600 z M 1088,1600 L 1088,1728 L 1472,1728 L 1472,1600 L 1088,1600 z M 1600,1600 L 1600,1728 L 1984,1728 L 1984,1600 L 1600,1600 z M 64,1856 L 64,1984 L 448,1984 L 448,1856 L 64,1856 z M 576,1856 L 576,1984 L 960,1984 L 960,1856 L 576,1856 z M 1088,1856 L 1088,1984 L 1472,1984 L 1472,1856 L 1088,1856 z M 1600,1856 L 1600,1984 L 1984,1984 L 1984,1856 L 1600,1856 z"
       id="rect3163" />
  </g>
  <g
     inkscape:groupmode="layer"
     id="layer2"
     inkscape:label="Graphs"
     sodipodi:insensitive="true">
    <path
       style="fill:none;fill-rule:evenodd;stroke:url(#linearGradient3347);stroke-width:64;stroke-linecap:butt;stroke-linejoin:miter;stroke-miterlimit:20;stroke-dasharray:none;stroke-opacity:1"
       d="M 64,1728 L 512,960 L 1024,1728 L 1280,320 L 1728,1216 L 1984,1408"
       id="path3254"
       sodipodi:nodetypes="cccccc" />
    <path
       style="fill:none;fill-rule:evenodd;stroke:url(#linearGradient3349);stroke-width:64;stroke-linecap:butt;stroke-linejoin:miter;stroke-miterlimit:20;stroke-dasharray:none;stroke-opacity:1"
       d="M 64,960 L 640,1472 L 768,576 L 1984,1920"
       id="path3320"
       sodipodi:nodetypes="cccc" />
    <path
       style="fill:none;fill-opacity:1;stroke:url(#linearGradient3345);stroke-width:64;stroke-linecap:butt;stroke-linejoin:miter;stroke-miterlimit:20;stroke-dasharray:none;stroke-opacity:1"
       d="M 64,256 L 1216,1792 L 1408,832 L 1856,1792 L 1984,960"
       id="path3330"
       sodipodi:nodetypes="ccccc" />
  </g>
</svg>
