<?xml version="1.0" encoding="UTF-8" standalone="no"?>
<!-- Created with Inkscape (http://www.inkscape.org/) -->
<svg
   xmlns:dc="http://purl.org/dc/elements/1.1/"
   xmlns:cc="http://creativecommons.org/ns#"
   xmlns:rdf="http://www.w3.org/1999/02/22-rdf-syntax-ns#"
   xmlns:svg="http://www.w3.org/2000/svg"
   xmlns="http://www.w3.org/2000/svg"
   xmlns:xlink="http://www.w3.org/1999/xlink"
   xmlns:sodipodi="http://sodipodi.sourceforge.net/DTD/sodipodi-0.dtd"
   xmlns:inkscape="http://www.inkscape.org/namespaces/inkscape"
   width="2048"
   height="2048"
   id="svg2"
   sodipodi:version="0.32"
   inkscape:version="0.46"
   version="1.0"
   sodipodi:docname="Stream Visualizer Icon.svg"
   inkscape:output_extension="org.inkscape.output.svg.inkscape"
   inkscape:export-filename="/home/julian/Projects/Visualizer/Images/Stream Visualizer Icon.png"
   inkscape:export-xdpi="1.40625"
   inkscape:export-ydpi="1.40625">
  <defs
     id="defs4">
    <linearGradient
       inkscape:collect="always"
       id="linearGradient3332">
      <stop
         style="stop-color:#0000ff;stop-opacity:1;"
         offset="0"
         id="stop3334" />
      <stop
         style="stop-color:#0000ff;stop-opacity:0;"
         offset="1"
         id="stop3336" />
    </linearGradient>
    <linearGradient
       inkscape:collect="always"
       id="linearGradient3322">
      <stop
         style="stop-color:#00ff00;stop-opacity:1;"
         offset="0"
         id="stop3324" />
      <stop
         style="stop-color:#00ff00;stop-opacity:0;"
         offset="1"
         id="stop3326" />
    </linearGradient>
    <linearGradient
       inkscape:collect="always"
       id="linearGradient3312">
      <stop
         style="stop-color:#ff0000;stop-opacity:1;"
         offset="0"
         id="stop3314" />
      <stop
         style="stop-color:#ff0000;stop-opacity:0;"
         offset="1"
         id="stop3316" />
    </linearGradient>
    <linearGradient
       id="linearGradient3203">
      <stop
         style="stop-color:#000000;stop-opacity:1;"
         offset="0"
         id="stop3205" />
      <stop
         style="stop-color:#000000;stop-opacity:0"
         offset="1"
         id="stop3207" />
    </linearGradient>
    <inkscape:perspective
       sodipodi:type="inkscape:persp3d"
       inkscape:vp_x="0 : 526.18109 : 1"
       inkscape:vp_y="0 : 1000 : 0"
       inkscape:vp_z="744.09448 : 526.18109 : 1"
       inkscape:persp3d-origin="372.04724 : 350.78739 : 1"
       id="perspective10" />
    <linearGradient
       inkscape:collect="always"
       xlink:href="#linearGradient3332"
       id="linearGradient3345"
       gradientUnits="userSpaceOnUse"
       x1="1280"
       y1="1280"
       x2="768"
       y2="768" />
    <linearGradient
       inkscape:collect="always"
       xlink:href="#linearGradient3312"
       id="linearGradient3347"
       gradientUnits="userSpaceOnUse"
       x1="1280"
       y1="1280"
       x2="768"
       y2="768" />
    <linearGradient
       inkscape:collect="always"
       xlink:href="#linearGradient3322"
       id="linearGradient3349"
       gradientUnits="userSpaceOnUse"
       x1="1280"
       y1="1280"
       x2="768"
       y2="768" />
    <linearGradient
       inkscape:collect="always"
       xlink:href="#linearGradient3203"
       id="linearGradient3429"
       gradientUnits="userSpaceOnUse"
       x1="512"
       y1="512"
       x2="1536"
       y2="1536" />
    <linearGradient
       inkscape:collect="always"
       xlink:href="#linearGradient3203"
       id="linearGradient3437"
       gradientUnits="userSpaceOnUse"
       x1="768"
       y1="768"
       x2="1280"
       y2="1280" />
    <linearGradient
       inkscape:collect="always"
       xlink:href="#linearGradient3312"
       id="linearGradient3445"
       gradientUnits="userSpaceOnUse"
       x1="1280"
       y1="1280"
       x2="768"
       y2="768" />
    <linearGradient
       inkscape:collect="always"
       xlink:href="#linearGradient3322"
       id="linearGradient3451"
       gradientUnits="userSpaceOnUse"
       x1="1280"
       y1="1280"
       x2="768"
       y2="768" />
    <linearGradient
       inkscape:collect="always"
       xlink:href="#linearGradient3332"
       id="linearGradient3457"
       gradientUnits="userSpaceOnUse"
       x1="1280"
       y1="1280"
       x2="768"
       y2="768" />
    <linearGradient
       inkscape:collect="always"
       xlink:href="#linearGradient3312"
       id="linearGradient3468"
       gradientUnits="userSpaceOnUse"
       x1="1280"
       y1="1280"
       x2="768"
       y2="768" />
    <linearGradient
       inkscape:collect="always"
       xlink:href="#linearGradient3322"
       id="linearGradient3472"
       gradientUnits="userSpaceOnUse"
       x1="1280"
       y1="1280"
       x2="768"
       y2="768" />
    <linearGradient
       inkscape:collect="always"
       xlink:href="#linearGradient3332"
       id="linearGradient3476"
       gradientUnits="userSpaceOnUse"
       x1="1280"
       y1="1280"
       x2="768"
       y2="768" />
  </defs>
  <sodipodi:namedview
     id="base"
     pagecolor="#ffffff"
     bordercolor="#666666"
     borderopacity="1.0"
     gridtolerance="10000"
     guidetolerance="10"
     objecttolerance="10"
     inkscape:pageopacity="0.0"
     inkscape:pageshadow="2"
     inkscape:zoom="0.24"
     inkscape:cx="709.70734"
     inkscape:cy="1082.2441"
     inkscape:document-units="px"
     inkscape:current-layer="layer2"
     showgrid="true"
     showguides="true"
     inkscape:window-width="1280"
     inkscape:window-height="755"
     inkscape:window-x="0"
     inkscape:window-y="0">
    <inkscape:grid
       type="xygrid"
       id="grid3157"
       visible="true"
       enabled="true"
       dotted="true"
       spacingx="64px"
       spacingy="64px" />
  </sodipodi:namedview>
  <metadata
     id="metadata7">
    <rdf:RDF>
      <cc:Work
         rdf:about="">
        <dc:format>image/svg+xml</dc:format>
        <dc:type
           rdf:resource="http://purl.org/dc/dcmitype/StillImage" />
      </cc:Work>
    </rdf:RDF>
  </metadata>
  <g
     inkscape:label="Text"
     inkscape:groupmode="layer"
     id="layer1"
     style="display:inline"
     sodipodi:insensitive="true">
    <path
       style="fill:url(#linearGradient3437);fill-opacity:1;fill-rule:evenodd;stroke:none;stroke-width:1px;stroke-linecap:butt;stroke-linejoin:miter;stroke-opacity:1"
       d="M 64,64 L 64,192 L 448,192 L 448,64 L 64,64 z M 576,64 L 576,192 L 960,192 L 960,64 L 576,64 z M 1088,64 L 1088,192 L 1472,192 L 1472,64 L 1088,64 z M 1600,64 L 1600,192 L 1984,192 L 1984,64 L 1600,64 z M 64,320 L 64,448 L 448,448 L 448,320 L 64,320 z M 576,320 L 576,448 L 960,448 L 960,320 L 576,320 z M 1088,320 L 1088,448 L 1472,448 L 1472,320 L 1088,320 z M 1600,320 L 1600,448 L 1984,448 L 1984,320 L 1600,320 z M 64,576 L 64,704 L 448,704 L 448,576 L 64,576 z M 576,576 L 576,704 L 960,704 L 960,576 L 576,576 z M 1088,576 L 1088,704 L 1472,704 L 1472,576 L 1088,576 z M 1600,576 L 1600,704 L 1984,704 L 1984,576 L 1600,576 z M 64,832 L 64,960 L 448,960 L 448,832 L 64,832 z M 576,832 L 576,960 L 960,960 L 960,832 L 576,832 z M 1088,832 L 1088,960 L 1472,960 L 1472,832 L 1088,832 z M 1600,832 L 1600,960 L 1984,960 L 1984,832 L 1600,832 z M 64,1088 L 64,1216 L 448,1216 L 448,1088 L 64,1088 z M 576,1088 L 576,1216 L 960,1216 L 960,1088 L 576,1088 z M 1088,1088 L 1088,1216 L 1472,1216 L 1472,1088 L 1088,1088 z M 1600,1088 L 1600,1216 L 1984,1216 L 1984,1088 L 1600,1088 z M 64,1344 L 64,1472 L 448,1472 L 448,1344 L 64,1344 z M 576,1344 L 576,1472 L 960,1472 L 960,1344 L 576,1344 z M 1088,1344 L 1088,1472 L 1472,1472 L 1472,1344 L 1088,1344 z M 1600,1344 L 1600,1472 L 1984,1472 L 1984,1344 L 1600,1344 z M 64,1600 L 64,1728 L 448,1728 L 448,1600 L 64,1600 z M 576,1600 L 576,1728 L 960,1728 L 960,1600 L 576,1600 z M 1088,1600 L 1088,1728 L 1472,1728 L 1472,1600 L 1088,1600 z M 1600,1600 L 1600,1728 L 1984,1728 L 1984,1600 L 1600,1600 z M 64,1856 L 64,1984 L 448,1984 L 448,1856 L 64,1856 z M 576,1856 L 576,1984 L 960,1984 L 960,1856 L 576,1856 z M 1088,1856 L 1088,1984 L 1472,1984 L 1472,1856 L 1088,1856 z M 1600,1856 L 1600,1984 L 1984,1984 L 1984,1856 L 1600,1856 z"
       id="rect3163" />
  </g>
  <g
     inkscape:groupmode="layer"
     id="layer2"
     inkscape:label="Graphs">
    <path
       style="fill:url(#linearGradient3468);fill-opacity:1;fill-rule:evenodd;stroke:none;stroke-width:128;stroke-linecap:butt;stroke-linejoin:miter;stroke-miterlimit:20;stroke-dasharray:none;stroke-opacity:1"
       d="M 1251.375 119.65625 L 1217.0312 308.5625 L 989.375 1560.6875 L 565.25 924.5 L 509.15625 840.34375 L 457.125 927.0625 L 64 1582.2812 L 64 1831.0625 L 514.84375 1079.6562 L 970.75 1763.5 L 1058.625 1895.3125 L 1086.9688 1739.4375 L 1308.625 520.375 L 1670.75 1244.625 L 1677.0312 1257.1875 L 1688.0312 1265.9688 L 1984 1502.75 L 1984 1338.8438 L 1779 1174.8438 L 1337.25 291.375 L 1251.375 119.65625 z "
       id="path3254" />
    <path
       style="fill:url(#linearGradient3472);fill-opacity:1;fill-rule:evenodd;stroke:none;stroke-width:128;stroke-linecap:butt;stroke-linejoin:miter;stroke-miterlimit:20;stroke-dasharray:none;stroke-opacity:1"
       d="M 723.25 436.625 L 704.65625 566.9375 L 593.71875 1343.4375 L 64 861.875 L 64 1034.8438 L 596.9375 1519.3438 L 686.28125 1600.5625 L 703.34375 1481.0625 L 812.71875 715.375 L 1984 1939.875 L 1984 1754.6562 L 814.25 531.75 L 723.25 436.625 z "
       id="path3320" />
    <path
       style="fill:url(#linearGradient3476);fill-opacity:1;stroke:none;stroke-width:128;stroke-linecap:butt;stroke-linejoin:miter;stroke-miterlimit:20;stroke-dasharray:none;stroke-opacity:1"
       d="M 64 248.4375 L 64 441.625 L 1296.0625 1834.4062 L 1383.4062 1933.125 L 1406.9688 1803.4375 L 1493.5 1327.5938 L 1604.0625 1622.4688 L 1662.0625 1777.125 L 1723.4375 1623.7812 L 1984 972.375 L 1984 627.625 L 1665.9062 1422.8125 L 1531.9375 1065.5312 L 1450.5 848.4375 L 1409.0312 1076.5625 L 1304.625 1650.875 L 64 248.4375 z "
       id="path3330" />
  </g>
</svg>
